<svg width="42" height="42" viewBox="0 0 42 42" fill="none" xmlns="http://www.w3.org/2000/svg">
<g id="Layer 2">
<path id="book" d="M39.375 0H7.875C5.78642 0 3.78338 0.737498 2.30653 2.05025C0.829685 3.36301 0 5.14348 0 7V35C0 36.8565 0.829685 38.637 2.30653 39.9497C3.78338 41.2625 5.78642 42 7.875 42H39.375C40.0712 42 40.7389 41.7542 41.2312 41.3166C41.7234 40.879 42 40.2855 42 39.6667V2.33333C42 1.71449 41.7234 1.121 41.2312 0.683417C40.7389 0.245833 40.0712 0 39.375 0ZM7.875 37.3333C7.17881 37.3333 6.51113 37.0875 6.01885 36.6499C5.52656 36.2123 5.25 35.6188 5.25 35C5.25 34.3812 5.52656 33.7877 6.01885 33.3501C6.51113 32.9125 7.17881 32.6667 7.875 32.6667H36.75V37.3333H7.875Z" fill="#383838"/>
</g>
</svg>
