<svg width="52" height="52" viewBox="0 0 52 52" fill="none" xmlns="http://www.w3.org/2000/svg">
<g clip-path="url(#clip0_39_46)">
<rect width="52" height="52" fill="white"/>
<path fill-rule="evenodd" clip-rule="evenodd" d="M45.3351 0H6.66478C3.003 0 0 3.00289 0 6.66478V45.3351C0 48.9972 3.003 52 6.66478 52H45.3351C48.9971 52 52 48.9972 52 45.3352V6.66478C52 3.00289 48.9971 0 45.3351 0ZM37.8116 27.4509C37.9836 29.0806 43.6935 32.4959 43.2665 35.1233C43.0743 36.3007 41.0984 36.0923 39.3458 36.1478C37.7272 36.2 36.1442 36.0944 35.4275 35.8071C34.243 35.3331 31.1323 31.2147 30.3133 31.3759C28.4934 31.7303 29.1524 35.5406 28.6098 35.8071C27.8323 36.1883 25.3089 36.0744 24.352 35.9761C19.2243 35.1147 16.2517 31.6785 13.4442 27.2835C10.0115 21.9105 7.98102 17.8765 8.84293 17.3969C9.79041 16.8708 12.4429 16.9825 15.1486 17.0546C15.954 17.0789 18.2953 22.9087 18.8967 23.8767C21.3376 27.7819 22.1017 24.8973 22.1359 24.5574C22.7974 17.5517 21.0824 17.8677 20.0902 17.7372C20.8382 15.4659 26.0534 15.8629 26.0534 15.8629C26.0534 15.8629 27.7981 16.285 28.4395 16.7149C28.7032 16.8938 28.9991 17.4591 28.95 19.2733C28.8804 22.0049 28.603 25.7308 29.8035 25.7491C30.7294 25.7626 32.1963 23.5847 33.3823 21.3179C34.4312 19.3124 35.2388 17.368 35.5964 17.2275C35.9838 17.0749 37.659 17.0643 39.3457 17.0545C40.9973 17.0467 42.6623 17.0329 43.0958 17.3968C43.9694 18.134 42.4502 20.5253 41.0491 22.5097C39.9022 24.1413 37.6886 26.2889 37.8116 27.4509Z" fill="#063257"/>
</g>
<defs>
<clipPath id="clip0_39_46">
<rect width="52" height="52" fill="white"/>
</clipPath>
</defs>
</svg>
