<svg width="42" height="42" viewBox="0 0 42 42" fill="none" xmlns="http://www.w3.org/2000/svg">
<g id="Car" clip-path="url(#clip0_14_101)">
<path id="Shape" fill-rule="evenodd" clip-rule="evenodd" d="M1.89536 14.1705L1.87026 14.1915C0.701824 15.1651 0 16.8044 0 18.5597V39.375C0 40.8247 0.940202 42 2.1 42H4.2C5.3598 42 6.3 40.8247 6.3 39.375V36.75H35.7V39.375C35.7 40.8247 36.6402 42 37.8 42H39.9C41.0598 42 42 40.8247 42 39.375V18.5597C42 16.8044 41.2982 15.1651 40.1297 14.1915L40.1046 14.1705C40.87 13.618 41.5632 13.0752 41.6978 12.8333C42.0227 12.25 42.1719 10.5 41.6978 10.5H37.8L35.3413 4.35319C34.2741 1.68527 32.0926 0 29.7064 0H12.2936C9.90735 0 7.72589 1.68527 6.65872 4.35319L4.2 10.5H0.302151C-0.171911 10.5 -0.0226697 12.25 0.302151 12.8333C0.436839 13.0752 1.13002 13.618 1.89536 14.1705ZM8.61412 5.40441L5.02353 13.8199C4.65051 14.6941 5.15733 15.75 5.95 15.75H36.05C36.8427 15.75 37.3495 14.6941 36.9765 13.8199L33.3859 5.40441C32.6559 3.69363 31.2311 2.625 29.68 2.625H12.32C10.7689 2.625 9.34406 3.69363 8.61412 5.40441ZM2.1 23.8347V20.6601C2.1 19.6471 2.97907 19.016 3.67906 19.5264L10.6906 24.639C11.6569 25.3436 11.1892 27.1968 10.0743 27.0807L4.0256 26.4506C2.93719 26.3372 2.1 25.1999 2.1 23.8347ZM39.9 20.6601V23.8347C39.9 25.1999 39.0628 26.3372 37.9744 26.4506L31.9257 27.0807C30.8108 27.1968 30.3431 25.3436 31.3094 24.639L38.3209 19.5264C39.0209 19.016 39.9 19.6471 39.9 20.6601Z" fill="#383838"/>
</g>
<defs>
<clipPath id="clip0_14_101">
<rect width="42" height="42" fill="white"/>
</clipPath>
</defs>
</svg>
