<svg width="42" height="42" viewBox="0 0 42 42" fill="none" xmlns="http://www.w3.org/2000/svg">
<g id="Wallet" clip-path="url(#clip0_14_164)">
<path id="Vector" d="M36.75 9.97316H3.9375V8.63871L32.8125 6.29008V8.63871H36.75V4.63536C36.75 1.69956 34.4111 -0.360828 31.5551 0.0528515L5.1975 3.88006C2.33888 4.29641 0 7.03737 0 9.97316V36.6622C0 38.0779 0.553123 39.4356 1.53769 40.4366C2.52226 41.4376 3.85761 42 5.25 42H36.75C38.1424 42 39.4777 41.4376 40.4623 40.4366C41.4469 39.4356 42 38.0779 42 36.6622V15.311C42 13.8953 41.4469 12.5376 40.4623 11.5366C39.4777 10.5355 38.1424 9.97316 36.75 9.97316ZM32.8125 28.6715C32.2952 28.6713 31.7831 28.5676 31.3053 28.3661C30.8275 28.1647 30.3934 27.8696 30.0277 27.4976C29.6621 27.1256 29.3721 26.684 29.1743 26.1981C28.9765 25.7122 28.8748 25.1914 28.875 24.6655C28.8752 24.1396 28.9772 23.6189 29.1753 23.133C29.3734 22.6472 29.6637 22.2059 30.0296 21.8341C30.3955 21.4624 30.8298 21.1675 31.3077 20.9664C31.7857 20.7654 32.2979 20.6619 32.8151 20.6621C33.8598 20.6625 34.8615 21.0847 35.5999 21.836C36.3383 22.5873 36.753 23.606 36.7526 24.6681C36.7523 25.7303 36.337 26.7487 35.598 27.4995C34.8591 28.2503 33.8571 28.6719 32.8125 28.6715Z" fill="#383838"/>
</g>
<defs>
<clipPath id="clip0_14_164">
<rect width="42" height="42" fill="white"/>
</clipPath>
</defs>
</svg>
