<svg width="42" height="42" viewBox="0 0 42 42" fill="none" xmlns="http://www.w3.org/2000/svg">
<g id="Steering wheel" clip-path="url(#clip0_14_114)">
<path id="Shape" fill-rule="evenodd" clip-rule="evenodd" d="M18.4016 37.6003C17.0181 34.2046 13.0636 25.0045 10.5 24.15C8.70695 23.5523 6.23349 23.6351 4.43519 23.8173C5.63294 30.9111 11.277 36.4941 18.4016 37.6003ZM4.89184 16.213C6.95298 9.26676 13.3848 4.2 21 4.2C28.6152 4.2 35.047 9.26676 37.1082 16.213C33.7927 15.5917 27.8422 14.7 21 14.7C14.1578 14.7 8.20733 15.5917 4.89184 16.213ZM37.5648 23.8173C35.7665 23.6351 33.293 23.5523 31.5 24.15C28.9364 25.0045 24.9818 34.2046 23.5984 37.6003C30.723 36.4941 36.3671 30.9111 37.5648 23.8173ZM42 21C42 32.598 32.598 42 21 42C9.40202 42 0 32.598 0 21C0 9.40202 9.40202 0 21 0C32.598 0 42 9.40202 42 21Z" fill="#383838"/>
</g>
<defs>
<clipPath id="clip0_14_114">
<rect width="42" height="42" fill="white"/>
</clipPath>
</defs>
</svg>
