<svg width="52" height="52" viewBox="0 0 52 52" fill="none" xmlns="http://www.w3.org/2000/svg">
<rect width="52" height="52" rx="6" fill="#383838"/>
<path fill-rule="evenodd" clip-rule="evenodd" d="M9.75 8.125H42.25C44.4113 8.125 46.475 8.98625 48.0025 10.4975C49.5138 12.025 50.375 14.0887 50.375 16.25V35.75C50.375 37.9112 49.5138 39.975 48.0025 41.5025C46.475 43.0138 44.4113 43.875 42.25 43.875H9.75C7.58875 43.875 5.525 43.0138 3.9975 41.5025C2.48625 39.975 1.625 37.9112 1.625 35.75V16.25C1.625 14.0887 2.48625 12.025 3.9975 10.4975C5.525 8.98625 7.58875 8.125 9.75 8.125ZM9.75 11.375H42.25C43.55 11.375 44.785 11.895 45.695 12.805C46.605 13.715 47.125 14.95 47.125 16.25V35.75C47.125 37.05 46.605 38.285 45.695 39.195C44.785 40.105 43.55 40.625 42.25 40.625H9.75C8.45 40.625 7.215 40.105 6.305 39.195C5.395 38.285 4.875 37.05 4.875 35.75V16.25C4.875 14.95 5.395 13.715 6.305 12.805C7.215 11.895 8.45 11.375 9.75 11.375Z" fill="white"/>
<path d="M48.0187 14.8037C48.4087 14.6087 48.8474 14.5762 49.2699 14.7062C49.6762 14.8524 50.0174 15.1449 50.1962 15.5187C50.3912 15.9087 50.4237 16.3474 50.2937 16.7699C50.1474 17.1762 49.8549 17.5174 49.4812 17.6962L29.6399 27.6249C29.6237 27.6249 29.6074 27.6412 29.5912 27.6412C28.4699 28.1612 27.2349 28.4212 25.9999 28.4049C24.7649 28.4212 23.5299 28.1612 22.4087 27.6412C22.3924 27.6412 22.3762 27.6249 22.3599 27.6249L2.51867 17.6962C2.14492 17.5174 1.85242 17.1762 1.70617 16.7699C1.57617 16.3474 1.60867 15.9087 1.80367 15.5187C1.98242 15.1449 2.32367 14.8524 2.72992 14.7062C3.15242 14.5762 3.59117 14.6087 3.98117 14.8037L23.8062 24.6999C24.4887 25.0249 25.2362 25.1712 25.9999 25.1549C26.7637 25.1712 27.5112 25.0249 28.1937 24.6999L48.0187 14.8037ZM17.8749 34.1249C18.3137 34.1249 18.7199 34.3037 19.0287 34.5962C19.3212 34.9049 19.4999 35.3112 19.4999 35.7499C19.4999 36.1887 19.3212 36.5949 19.0287 36.9037C18.7199 37.1962 18.3137 37.3749 17.8749 37.3749H9.74992C9.31117 37.3749 8.90492 37.1962 8.59617 36.9037C8.30367 36.5949 8.12492 36.1887 8.12492 35.7499C8.12492 35.3112 8.30367 34.9049 8.59617 34.5962C8.90492 34.3037 9.31117 34.1249 9.74992 34.1249H17.8749Z" fill="white"/>
</svg>
