<svg width="52" height="52" viewBox="0 0 52 52" fill="none" xmlns="http://www.w3.org/2000/svg">
<g clip-path="url(#clip0_39_48)">
<path d="M7.31739 0C3.26399 0 0 3.26399 0 7.31739V44.6827C0 48.7361 3.26399 52.0001 7.31739 52.0001H44.6827C48.7361 52.0001 52.0001 48.7361 52.0001 44.6827V7.31739C52.0001 3.26399 48.7361 0 44.6827 0H7.31739ZM27.1652 5.31378C33.0663 5.31378 37.8642 10.1136 37.8642 16.0144C37.8642 21.9147 33.0663 26.7118 27.1652 26.7118C21.2638 26.7118 16.4629 21.9147 16.4629 16.0144C16.4629 10.1136 21.2638 5.31378 27.1652 5.31378ZM27.0514 11.5831C24.6611 11.6439 22.7338 13.6102 22.7338 16.0144C22.7338 18.4558 24.7223 20.4426 27.1652 20.4426C29.6076 20.4426 31.5933 18.4558 31.5933 16.0144C31.5933 13.5721 29.6076 11.5831 27.1652 11.5831C27.127 11.5831 27.0894 11.5821 27.0514 11.5831ZM18.3056 27.0758C18.8724 27.0778 19.4443 27.2337 19.9599 27.5584C24.3397 30.3125 29.9859 30.3143 34.3672 27.5584C35.8341 26.6347 37.7675 27.0781 38.6913 28.5448C39.614 30.0091 39.1708 31.9451 37.7049 32.8673C35.7937 34.0685 33.6934 34.9382 31.4925 35.4397L37.4758 41.423C38.7006 42.6453 38.7006 44.6319 37.4758 45.856C36.2503 47.0806 34.2677 47.0806 33.0444 45.856L27.1619 39.9767L21.2859 45.856C20.674 46.4681 19.8711 46.7741 19.0694 46.7741C18.2668 46.7741 17.4666 46.4673 16.8529 45.856C15.6282 44.6311 15.6286 42.6479 16.8529 41.423L22.8329 35.4397C20.6552 34.9432 18.554 34.0814 16.6189 32.8673C15.1559 31.9451 14.716 30.0112 15.639 28.5448C16.2142 27.6282 17.186 27.1104 18.1919 27.0774C18.2298 27.0762 18.2677 27.0757 18.3057 27.0758H18.3056Z" fill="#D25800"/>
</g>
<defs>
<clipPath id="clip0_39_48">
<rect width="52" height="52" fill="white"/>
</clipPath>
</defs>
</svg>
